<?xml version="1.0" standalone="no"?>
<!DOCTYPE svg PUBLIC "-//W3C//DTD SVG 20010904//EN"
 "http://www.w3.org/TR/2001/REC-SVG-20010904/DTD/svg10.dtd">
<svg version="1.0" xmlns="http://www.w3.org/2000/svg"
 width="512.000000pt" height="512.000000pt" viewBox="0 0 512.000000 512.000000"
 preserveAspectRatio="xMidYMid meet">

<g transform="translate(0.000000,512.000000) scale(0.100000,-0.100000)"
fill="#000000" stroke="none">
<path d="M3570 3420 l0 -170 215 0 c118 0 215 -3 215 -6 0 -3 -120 -196 -267
-428 -147 -231 -336 -529 -419 -661 l-152 -240 -219 -3 -219 -2 -141 207 c-78
115 -198 291 -267 393 -70 102 -131 185 -137 185 -6 0 -56 -69 -110 -153 l-99
-153 189 -277 c104 -152 233 -341 287 -419 l98 -143 406 0 407 0 161 253 c88
138 271 428 407 642 136 215 308 485 381 601 l135 212 -3 163 -3 164 -432 3
-433 2 0 -170z"/>
<path d="M1689 3442 c-141 -224 -480 -759 -867 -1369 l-122 -191 0 -166 0
-166 430 0 430 0 0 165 0 165 -215 0 c-118 0 -215 2 -215 5 0 4 78 128 347
553 34 53 77 122 96 152 131 211 391 617 402 628 10 11 54 12 226 7 l214 -8
120 -176 c66 -96 184 -270 263 -385 78 -116 146 -214 151 -219 9 -9 17 3 146
202 l67 104 -59 86 c-260 382 -349 512 -424 621 l-86 125 -409 2 -409 2 -86
-137z"/>
</g>
</svg>
